<svg width="16" height="16" fill="none" xmlns="http://www.w3.org/2000/svg"><path fill-rule="evenodd" clip-rule="evenodd" d="m4.64 10.596 7.383 4.29A7.774 7.774 0 0 1 8 16a7.6 7.6 0 0 1-3.36-.758v-4.646ZM4.046 6.4v8.533c-2.224-1.232-3.763-3.532-4-6.21l4-2.323ZM16 7.94v.071a7.91 7.91 0 0 1-3.408 6.519l-4-2.3L16 7.94Zm-4.047-6.873c2.225 1.232 3.763 3.532 4 6.21l-4 2.323V1.067Zm-8.545.403 4 2.299L0 8.036v-.024A7.922 7.922 0 0 1 3.408 1.47ZM8 0c1.207 0 2.344.26 3.361.759V5.38L3.977 1.09A7.987 7.987 0 0 1 8 0Z" fill="#fff"/></svg>